<svg xmlns="http://www.w3.org/2000/svg" xmlns:xlink="http://www.w3.org/1999/xlink" width="517.13" height="436.214" viewBox="0 0 517.13 436.214">
  <defs>
    <linearGradient id="linear-gradient" x1="2.229" y1="0.714" x2="-2.151" y2="0.196" gradientUnits="objectBoundingBox">
      <stop offset="0.01"/>
      <stop offset="0.13" stop-opacity="0.69"/>
      <stop offset="0.25" stop-opacity="0.322"/>
      <stop offset="1" stop-opacity="0"/>
    </linearGradient>
    <linearGradient id="linear-gradient-2" x1="1.454" y1="-0.278" x2="0.109" y2="0.813" gradientUnits="objectBoundingBox">
      <stop offset="0.01"/>
      <stop offset="0.13" stop-opacity="0.69"/>
      <stop offset="1" stop-opacity="0"/>
    </linearGradient>
    <linearGradient id="linear-gradient-3" x1="1.928" y1="0.879" x2="-0.083" y2="0.381" xlink:href="#linear-gradient-2"/>
    <linearGradient id="linear-gradient-4" x1="0.639" y1="-1.016" x2="0.473" y2="1.011" xlink:href="#linear-gradient-2"/>
    <linearGradient id="linear-gradient-5" x1="0.852" y1="-0.871" x2="0.414" y2="0.751" xlink:href="#linear-gradient-2"/>
    <linearGradient id="linear-gradient-6" x1="2.013" y1="-0.337" x2="-0.106" y2="0.825" xlink:href="#linear-gradient-2"/>
    <linearGradient id="linear-gradient-7" x1="-0.031" y1="1.545" x2="0.684" y2="0.236" xlink:href="#linear-gradient-2"/>
  </defs>
  <g id="Reading" transform="translate(-0.018)">
    <path id="Tracciato_1" data-name="Tracciato 1" d="M521.317,404.779c-13.337,16.15-43.713,23-63.254,27.98a229.709,229.709,0,0,1-71.249,6.662c-21.466-1.346-42.69-5.8-64.035-8.385a238.964,238.964,0,0,0-28.088-1.911,200.763,200.763,0,0,0-22.772,1.346,409.972,409.972,0,0,0-45.974,8.358l-10.5,2.409c-6.918,1.6-13.835,3.2-20.766,4.684-7.792,1.669-15.6,3.2-23.445,4.428a210.642,210.642,0,0,1-35.557,2.611c-30.752-.444-61.02-8.6-81.787-30.416-11.588-12.18-19.165-27.59-25.571-43.134C23.451,367.661,18.7,355.387,16.4,342.817c-3.028-16.554-.336-15.168,8.21-27.967a119.443,119.443,0,0,0,20.457-66.121c.525-29.2-6.15-58.006-8.788-87.089a211.5,211.5,0,0,1-.727-30.645c1.023-19.232,5.41-38.02,15.719-54.036,21.022-32.637,61.478-46.539,99.592-53.632a360.165,360.165,0,0,1,64.6-6.568q9.717,0,19.407.606c48.221,3.351,95.057,20.484,143.44,20.389C423,37.661,469.341,28.5,495.4,73.891c19.892,34.709,21.8,76.565,20.322,116.482s-5.774,80.522,3.445,119.389c3.163,13.364,7.914,26.365,10.767,39.756.579,2.692,1.077,5.464,1.48,8.223C533.78,374.094,531.855,392.061,521.317,404.779Z" transform="translate(-15.167 -16.76)" fill="#68e1fd" opacity="0.18"/>
    <path id="Tracciato_2" data-name="Tracciato 2" d="M202.007,377.459q-3.661,20.066-7.335,40.146c-7.792,1.669-15.6,3.2-23.445,4.428a210.642,210.642,0,0,1-35.557,2.611c-30.752-.444-61.02-8.6-81.787-30.416-11.588-12.18-19.165-27.59-25.571-43.134-4.872-11.749-9.623-24.023-11.924-36.593-3.028-16.554-.336-15.168,8.21-27.967a119.443,119.443,0,0,0,20.457-66.121c.525-29.2-6.15-58.006-8.788-87.089a211.5,211.5,0,0,1-.727-30.645C48.594,97.417,64.6,97.645,78.7,100.835c8.4,1.9,16.863,4.737,23.31,10.457,12.6,11.184,14.266,30.295,11.938,46.983s-7.752,33.256-5.976,50.011c.646,6.056,2.234,12.045,2.059,18.128-.552,19.151-18.169,37.374-11.13,55.179,36.741,3.8,99.767,18.4,105.662,62.757C206.044,355.374,204,366.531,202.007,377.459Z" transform="translate(-15.17 11.529)" fill="url(#linear-gradient)"/>
    <path id="Tracciato_3" data-name="Tracciato 3" d="M260.972,346.993c-6.473.713-12.934,1.7-19.367,2.84-8.9,1.588-17.752,3.5-26.607,5.518l-10.5,2.409c-4.778,1.1-9.555,2.207-14.333,3.27s-9.609,2.113-14.414,3.069c-5.141,1.023-10.3,1.965-15.464,2.772a210.632,210.632,0,0,1-35.557,2.611C93.549,351.488,53.4,326.294,49,313.266c-7.079-20.7,4.616-33.067,12.611-42.569q.538-.619,1.05-1.252c7.967-9.677,46.108-11.386,60.9-11.386,6.729,0,17.146,4.67,26.58,9.784h0c11.359,6.164,21.21,12.96,21.21,12.96l22.018,13.458,65.542,40.052Z" transform="translate(-4.232 66.691)" fill="#68e1fd"/>
    <path id="Tracciato_4" data-name="Tracciato 4" d="M226.992,348.412c-8.9,1.588-17.752,3.5-26.607,5.518l-10.5,2.409c-4.778,1.1-9.555,2.207-14.333,3.27-7.119-3.27-14.306-6.42-21.264-10.094a231.059,231.059,0,0,1-31.735-20.188c-3.741-2.84-7.5-5.908-9.811-10-3.338-5.881-3.27-13.162-1.682-19.743a4.872,4.872,0,0,0,0-3.593,4.589,4.589,0,0,0-2.113-1.6,88.136,88.136,0,0,1-15.639-10,10.766,10.766,0,0,1-4.038-5.155c-1.157-4.293,2.853-8.169,6.729-10.376,8.075-6.043,21.843-8.465,31.358-5.289,2.692.9,5.478,1.857,8.29,2.88h0c10.053,3.674,20.511,8.156,29.03,13.728a73.106,73.106,0,0,1,14.1,12.718c2.894,3.243,5.639,6.635,8.358,10.013l17.4,21.614c3.19,3.822,5.491,8.075,8.331,12.045,2.315,3.257,6.366,5.5,9.515,7.994A55.336,55.336,0,0,1,226.992,348.412Z" transform="translate(10.381 68.112)" fill="url(#linear-gradient-2)"/>
    <path id="Tracciato_5" data-name="Tracciato 5" d="M469.859,404.779c-13.337,16.15-43.713,23-63.254,27.98a233.111,233.111,0,0,1-25.073,4.926,229.3,229.3,0,0,1-46.176,1.736c-21.466-1.346-42.69-5.8-64.035-8.385a238.963,238.963,0,0,0-28.088-1.911,196,196,0,0,0-20.472,1.074c-16.175,1.631-32.258,4.969-48.273,8.6l-10.5,2.409V16.76q9.717,0,19.407.606c48.235,3.351,95.07,20.484,143.453,20.389,44.7-.094,91.033-9.259,117.088,36.136,19.892,34.709,21.8,76.565,20.322,116.482s-5.774,80.522,3.445,119.389c3.163,13.364,7.914,26.365,10.767,39.756.579,2.692,1.077,5.464,1.48,8.223C482.321,374.094,480.4,392.061,469.859,404.779Z" transform="translate(36.292 -16.76)" fill="#68e1fd" opacity="0.23"/>
    <path id="Tracciato_6" data-name="Tracciato 6" d="M190.45,48.973l9.165-3.9,166.05,10.255V317.508H348.317Z" transform="translate(65.859 15.587)" fill="#68e1fd"/>
    <path id="Tracciato_7" data-name="Tracciato 7" d="M380.932,398.579a229.3,229.3,0,0,1-46.176,1.736c-21.466-1.346-42.69-5.8-64.035-8.385a238.964,238.964,0,0,0-28.088-1.911,195.984,195.984,0,0,0-20.472,1.074c-13.7-4.318-26.444-10.549-35.865-21.141-14.091-15.841-17.711-38.222-19.313-59.365a467.692,467.692,0,0,1,17.859-167.3,24.562,24.562,0,0,1,3.943-8.748c5.06-6.164,15.208-5.935,21.668-1.265s9.865,12.489,11.911,20.188c4.414,16.688,1.938,37.751-13.1,46.216,7.846,11.628-1.723,30.443,8.438,40.106,3.069,2.92,7.294,4.186,11.049,6.124,11.467,5.935,18.465,18.344,21.009,30.954s1.252,25.746-.081,38.6c-.377,3.58-.7,7.429,1.077,10.551,2.005,3.526,6.1,5.182,9.905,6.527,22.691,7.954,46.351,13.189,68.369,22.879,19.178,8.4,40.7,21.91,50.846,41.035C380.272,397.193,380.622,397.879,380.932,398.579Z" transform="translate(36.878 22.346)" fill="#68e1fd" opacity="0.23"/>
    <path id="Tracciato_8" data-name="Tracciato 8" d="M201.59,59.32V221.494L326.134,279.9l4.428-207.179Z" transform="translate(69.712 20.515)" fill="#fff"/>
    <path id="Tracciato_9" data-name="Tracciato 9" d="M288.936,171.173a1.345,1.345,0,0,0-.242-.956,1.184,1.184,0,0,0-.9-.3,6.123,6.123,0,0,0-5.383,3.1c1.776,1.346,3.311,3.324,2.988,5.5s-3.338,3.715-4.845,2.113c-.821-.888-.956-2.369-1.992-2.974a2.369,2.369,0,0,0-3.109,1.346,6.931,6.931,0,0,0-.094,3.782,9.34,9.34,0,0,1,6.877,3.378,5.383,5.383,0,0,1-2.624.888,3.647,3.647,0,0,0-2.463,1.211c-.538.767-.188,2.14.754,2.194a3.163,3.163,0,0,1,4.966,0c-.35,1.682-1.965,2.692-3.042,4.038s-1.346,3.836.31,4.387A7.6,7.6,0,0,0,283,195.142h2.369c.686,1.427,0,3.1-.39,4.6s-.525,3.472.767,4.361,2.894.229,4.239-.417a6.487,6.487,0,0,1-.754-3.9c.323-1.346,1.9-2.382,3.042-1.669s1,2.207.956,3.472.511,2.907,1.777,2.867,1.736-1.817,1.346-3.028-1.346-2.288-1.346-3.58a5.383,5.383,0,0,1,7.241,4.858,4.98,4.98,0,0,0,.538-6.285,6.1,6.1,0,0,1-1-1.507,2.557,2.557,0,0,1,1.978-2.961,7.55,7.55,0,0,1,3.916.4c.579-1.346-.659-2.826-2.059-3.109a7.241,7.241,0,0,0-4.132.821c0-1.346,1.561-2.1,2.759-2.772s2.315-2.369,1.279-3.27-2.6.471-3.2,1.75-1.669,2.88-3,2.4c-1.346-.74-.525-2.894.646-3.943s2.692-2.49,1.965-3.9c-.592-.754-1.83-.215-2.49.484s-1.413,1.6-2.369,1.427-1.346-1.561-.982-2.517a9.688,9.688,0,0,1,1.884-2.449,2.014,2.014,0,1,0-3.324-2.153,22.73,22.73,0,0,0-.713,3.042c-.35,1-1.682,1.8-2.4,1.036-.525-.552-.377-2.6-.417-3.2-.471.606-1.225,1.144-1.628,1.628C288.411,176.166,288.936,173.259,288.936,171.173Z" transform="translate(74.731 36.208)" fill="#68e1fd" opacity="0.23"/>
    <path id="Tracciato_10" data-name="Tracciato 10" d="M292.1,119.825a1.023,1.023,0,0,0-.162-.673.915.915,0,0,0-.7-.148,4.28,4.28,0,0,0-3.728,2.153,4.347,4.347,0,0,1,2.086,3.836c-.215,1.521-2.328,2.6-3.378,1.48-.579-.619-.659-1.655-1.346-2.073a1.642,1.642,0,0,0-2.167.956,4.736,4.736,0,0,0,0,2.692A6.527,6.527,0,0,1,287.5,130.4a3.768,3.768,0,0,1-1.844.619,2.557,2.557,0,0,0-1.709.848c-.377.538-.135,1.48.525,1.534a2.194,2.194,0,0,1,3.459,0c-.242,1.171-1.346,1.911-2.113,2.84s-.915,2.692.215,3.055a5.289,5.289,0,0,0,1.992-2.6h1.655a4.67,4.67,0,0,1-.269,3.2c-.31,1.063-.377,2.409.525,3.042a3.015,3.015,0,0,0,2.947-.3,4.521,4.521,0,0,1-.511-2.692c.215-.915,1.346-1.655,2.113-1.157s.686,1.534.673,2.409.35,2.032,1.238,2.005,1.2-1.265.9-2.113a8.2,8.2,0,0,1-.956-2.49,3.7,3.7,0,0,1,5.047,3.378,3.459,3.459,0,0,0,.377-4.374,4.468,4.468,0,0,1-.7-1.05,1.776,1.776,0,0,1,1.346-2.059,4.993,4.993,0,0,1,2.692.283c.4-.915-.458-1.978-1.427-2.18a5.182,5.182,0,0,0-2.88.579c0-.956,1.077-1.467,1.925-1.925s1.615-1.655.888-2.288-1.8.323-2.234,1.211-1.171,2.019-2.086,1.682-.363-2.019.444-2.692,1.857-1.736,1.346-2.692c-.417-.525-1.346-.148-1.736.336s-.982,1.117-1.655,1-.956-1.077-.686-1.75a7.267,7.267,0,0,1,1.346-1.709,1.494,1.494,0,1,0-2.315-1.494,15.78,15.78,0,0,0-.5,2.126c-.242.686-1.171,1.252-1.669.713s-.256-1.8-.3-2.234c-.323.417-.848.794-1.13,1.144C291.754,123.311,292.1,121.279,292.1,119.825Z" transform="translate(77.282 18.594)" fill="#68e1fd" opacity="0.46"/>
    <path id="Tracciato_11" data-name="Tracciato 11" d="M251.608,87.953a1.009,1.009,0,0,0-.162-.659.848.848,0,0,0-.646-.2,4.28,4.28,0,0,0-3.728,2.153,4.32,4.32,0,0,1,2.086,3.836c-.215,1.507-2.328,2.584-3.378,1.467-.579-.606-.659-1.642-1.346-2.073a1.669,1.669,0,0,0-2.167.969,4.858,4.858,0,0,0-.067,2.692,6.514,6.514,0,0,1,4.791,2.342,3.607,3.607,0,0,1-1.83.633,2.544,2.544,0,0,0-1.709.834c-.377.538-.135,1.494.525,1.534a2.207,2.207,0,0,1,3.459,0c-.242,1.184-1.346,1.911-2.113,2.853s-.915,2.692.215,3.055a5.384,5.384,0,0,0,1.992-2.611h1.655a4.71,4.71,0,0,1-.269,3.217c-.31,1.05-.377,2.409.525,3.028a3.042,3.042,0,0,0,2.947-.283,4.576,4.576,0,0,1-.511-2.692c.215-.915,1.346-1.655,2.113-1.157s.686,1.548.673,2.423.35,2.019,1.238,2.005,1.2-1.346.9-2.126a7.941,7.941,0,0,1-.956-2.49,3.715,3.715,0,0,1,5.047,3.378,3.459,3.459,0,0,0,.377-4.374,4.386,4.386,0,0,1-.7-1.036,1.79,1.79,0,0,1,1.346-2.073,5.289,5.289,0,0,1,2.692.283c.4-.915-.458-1.978-1.427-2.167a4.953,4.953,0,0,0-2.88.579c0-.956,1.077-1.467,1.925-1.938s1.615-1.642.888-2.274-1.8.323-2.234,1.211-1.171,2.019-2.086,1.669-.363-2.019.444-2.692,1.857-1.736,1.346-2.692c-.417-.525-1.346-.148-1.736.336s-1,1.117-1.655,1-.956-1.09-.686-1.763a7.2,7.2,0,0,1,1.346-1.7,1.938,1.938,0,0,0,.458-1.992,1.871,1.871,0,0,0-2.772.485,15.767,15.767,0,0,0-.5,2.126c-.242.686-1.171,1.252-1.669.727s-.256-1.817-.3-2.248c-.323.431-.848.808-1.13,1.144C251.258,91.438,251.608,89.406,251.608,87.953Z" transform="translate(63.285 7.562)" fill="#68e1fd" opacity="0.46"/>
    <path id="Tracciato_12" data-name="Tracciato 12" d="M258.554,173.236a1.52,1.52,0,0,0,.552-.929,1.346,1.346,0,0,0-.5-.956,6.85,6.85,0,0,0-6.648-1.736c.39,2.423,0,5.235-1.938,6.729s-5.558.336-5.491-2.113c0-1.346,1.09-2.624.74-3.916a2.692,2.692,0,0,0-3.54-1.346,7.631,7.631,0,0,0-3.042,2.92,10.4,10.4,0,0,1,2.826,8.075,5.922,5.922,0,0,1-2.786-1.346,4.037,4.037,0,0,0-2.907-.969c-1.023.2-1.8,1.548-1.117,2.328a3.54,3.54,0,0,1,3.943,3.889c-1.6,1.063-3.7.646-5.612.875s-4.038,2.005-3.176,3.714a8.519,8.519,0,0,0,5.195-.727l1.857,1.884c-.579,1.655-2.382,2.49-3.916,3.351s-3.122,2.328-2.8,4.038,2.126,2.436,3.688,2.974a7.106,7.106,0,0,1,2.463-3.674c1.346-.808,3.365-.417,3.715,1.05s-.942,2.53-1.952,3.5-1.857,2.692-.834,3.661,2.8-.094,3.392-1.346.727-2.88,1.709-3.9a5.895,5.895,0,0,1,1.951,9.5,5.545,5.545,0,0,0,5.383-4.562,6.877,6.877,0,0,1,.377-1.965,2.853,2.853,0,0,1,3.889-.808,8.277,8.277,0,0,1,2.786,3.378c1.48-.579,1.7-2.692.808-4.038a8.075,8.075,0,0,0-3.93-2.571c1.063-1.1,2.88-.458,4.361,0s3.688,0,3.566-1.6-2.423-1.655-3.9-1.117-3.58.982-4.253-.444c-.538-1.669,1.844-2.692,3.593-2.624s4.038.108,4.6-1.561c.121-1.063-1.346-1.6-2.355-1.561s-2.369.161-2.988-.713.135-2.315,1.184-2.772a11.508,11.508,0,0,1,3.4-.471,3.028,3.028,0,0,0,2.692-1.75,2.961,2.961,0,0,0-3.688-2.544c-1.117.35-1.9,1.346-2.947,1.857s-2.692.108-2.692-1.063c0-.848,1.736-2.342,2.18-2.867a18.179,18.179,0,0,1-2.571,0C254.247,176.816,256.912,174.891,258.554,173.236Z" transform="translate(59.004 35.8)" fill="#68e1fd" opacity="0.25"/>
    <path id="Tracciato_13" data-name="Tracciato 13" d="M251.97,128.773s-27.105,62.38-8.667,109.417l-21.8-10.228s10.228-75.367.929-93.549l9.488,30.483,8.075-50.415-3.284,43.538S244.7,136.242,251.97,128.773Z" transform="translate(56.181 17.035)" fill="#68e1fd" opacity="0.39"/>
    <path id="Tracciato_14" data-name="Tracciato 14" d="M287.033,110.911c1.467.808,3.3.915,4.616,1.965,3.324,2.692.848,8.519,3.432,11.884,1.09,1.346,2.853,2.073,4.226,3.19a7.712,7.712,0,0,1-8.075,12.96c-3.243-1.494-6.433-5.276-9.529-3.513-1.238.713-1.911,2.167-3.136,2.894-1.871,1.144-4.239.256-6.352-.31a20.362,20.362,0,0,0-19.838,5.774l-6.043.7-.552,6.056a10.3,10.3,0,0,0-11.588-.861l-7.725-3.324a8.438,8.438,0,0,1-4.993,9.421,8.9,8.9,0,0,1-10.3-3.284A471.784,471.784,0,0,1,212,75.973c10.242-1.278,24.144-3.19,34.157.108,6.877,2.274,8.64,6.823,13.176,11.736,6.1,6.622,11.87,4.347,18.411,8.277C283.224,99.485,281.475,107.869,287.033,110.911Z" transform="translate(52.18 3.122)" fill="#68e1fd" opacity="0.23"/>
    <path id="Tracciato_15" data-name="Tracciato 15" d="M283.194,338.694a238.964,238.964,0,0,0-28.088-1.911c-23.243,0-46.014,4.509-68.745,9.677-3.445-1.655-6.971-3.378-10.5-5.141-14.172-7.093-28.168-14.8-35.113-20.726-17.079-14.508-9.421-36.822-9.421-36.822l44.561,2.921,42.179,2.772s35.369,5.531,44.763,15.773C268.027,310.9,276.9,325.8,283.194,338.694Z" transform="translate(24.404 75.583)" fill="#080608"/>
    <path id="Tracciato_16" data-name="Tracciato 16" d="M223.144,228.549l-4.038-22.5a48.855,48.855,0,0,0-2.248-9.1,32.206,32.206,0,0,0-11.87-14.266,78.192,78.192,0,0,0-16.823-8.371c-7.779-3.028-17.5.767-25.665,2.557-7.241,1.588-14.8,3.311-20.6,7.846-6.124,4.751-9.73,12.113-11.682,19.622s-2.436,15.289-3.5,22.973a153.1,153.1,0,0,1-7.429,30.255c-1.09,3.015-2.274,6.137-2.005,9.327s2.032,6.177,3.741,8.963l12.113,19.69c-6.366,7.55-5.141,20.268,2.53,26.473,6.3,5.087,15.02,5.531,23.095,5.76l54.533,1.521c3.136.094,6.487.121,9.111-1.6,4.038-2.692,4.7-8.358,4.535-13.243a99.794,99.794,0,0,0-3.351-22.624c-.485-1.844-1.036-3.836-.323-5.612a9.932,9.932,0,0,1,3.243-3.539,33.215,33.215,0,0,0,11.816-27.173C237.652,245.264,231.8,234.053,223.144,228.549Z" transform="translate(20.124 37.335)" fill="#68e1fd"/>
    <path id="Tracciato_17" data-name="Tracciato 17" d="M151.707,229.74a65.287,65.287,0,0,0-1.9-31.87,190.424,190.424,0,0,1,.606,26.917c-.2,4.132-.592,8.438-2.692,12a25.948,25.948,0,0,0-4.98-9,27.2,27.2,0,0,1-.606,9.959,11.44,11.44,0,0,1-6.218,7.456c1.346,1.9,3.755,2.6,5.881,3.526s4.361,2.584,4.361,4.912c0,1.09-.511,2.248,0,3.217.9,1.75,3.54.794,5.128-.363,3.338-2.423,18.963-10.646,16.15-15.6s-13.135,1.925-16.581,2.84C149.055,239.51,150.9,233.992,151.707,229.74Z" transform="translate(26.584 45.875)" fill="url(#linear-gradient-3)"/>
    <path id="Tracciato_18" data-name="Tracciato 18" d="M154.187,270.993l-22.879-1.13a3.58,3.58,0,0,0-1.6.175c-1.709.781-1.184,3.513-2.476,4.858,9.421-.646,18.505,2.544,27.334,5.72,2.88,1.036,6.258,2.046,8.869.431a14.8,14.8,0,0,1,2.692-1.79,6.07,6.07,0,0,1,4.374.807,259.374,259.374,0,0,1,23.714,12.786,3.876,3.876,0,0,0,3.23.821,3.835,3.835,0,0,0,1.521-1.346l6.433-8.183a2.127,2.127,0,0,0,.458-.834c.108-.646-.4-1.211-.861-1.655a142.923,142.923,0,0,1-17.334-20.188c-4.2-5.949-8.735-12.772-15.894-14.158-4.616-.888-15.033,1.548-17.59,6.083C153.42,254.614,155.358,271.047,154.187,270.993Z" transform="translate(23.578 62.91)" fill="url(#linear-gradient-4)"/>
    <path id="Tracciato_19" data-name="Tracciato 19" d="M201.689,140.127c.633,14.8-2.557,29.824,1,44.17l-8.075.767a18.492,18.492,0,0,0,0,4.226q-6.958.363-13.929.175c1.911,0,5.195-17.334,5.585-19.313,1.346-6.729,2.207-13.553,3.4-20.322,1.063-5.976,1.777-14.374,5.007-19.636C199.495,122.429,201.567,137.152,201.689,140.127Z" transform="translate(42.064 21.697)" fill="#32406a"/>
    <path id="Tracciato_20" data-name="Tracciato 20" d="M209.861,162.363c.727,1.588,1.75,3.19,1.561,4.926-.35,3.069-4.038,4.334-6.2,6.514-3.728,3.688-3.149,10.2-6.729,14.064a11.278,11.278,0,0,1-8.075,3.23,33.175,33.175,0,0,1-8.856-1.427c-2.423,1.965-2.234,5.639-1.777,8.721s.794,6.729-1.507,8.829c-2.624,2.409-6.9,1.144-9.838-.875-5.3-3.661-9.017-9.232-11.574-15.141a133.914,133.914,0,0,1-5.733-18.4c-2.813-10.444-6.15-21.708-2.167-31.762,3.028-7.658,10.08-13.31,17.886-15.948s16.325-2.557,24.467-1.2c6.07,1.009,16.742,3.876,18.277,11C211.556,144.019,205.661,153.265,209.861,162.363Z" transform="translate(30.46 19.971)" fill="#fdc0ad"/>
    <path id="Tracciato_21" data-name="Tracciato 21" d="M186.735,151.73a7.47,7.47,0,0,0-4.253,1.171,5.908,5.908,0,0,0-1.44,2.315,72.985,72.985,0,0,0-3.782,44.278,51.708,51.708,0,0,1-10.349-4.347c.834,1.588-1.682,3.068-3.365,2.449s-2.826-2.234-4.468-2.947a11.857,11.857,0,0,0-3.149-.686,24.494,24.494,0,0,1-13.351-6.487c-.915-9.044-6.1-17.065-8.4-25.867a63,63,0,0,1-1.709-15.343,35.7,35.7,0,0,1,1.252-11.278c1.48-4.657,4.522-8.64,7.523-12.5a34.467,34.467,0,0,1,6.554-7,25.208,25.208,0,0,1,9.031-3.863c10.928-2.692,22.489-1.225,33.35,1.723,6.864,1.857,13.741,4.428,19.1,9.1s8.977,11.857,7.846,18.842a15.948,15.948,0,0,0-7.887-8.761c-5.141-2.207-3.97,2.382-5.383,5.976a21.332,21.332,0,0,1-17.119,13.23Z" transform="translate(25.376 15.558)" fill="#32406a"/>
    <path id="Tracciato_22" data-name="Tracciato 22" d="M205.62,64.72v194.5l157.867,74.021,5.868-255.037Zm139.537,235.9L220.613,242.209V80.009L349.584,93.467Z" transform="translate(50.689 -0.174)" fill="#68e1fd"/>
    <path id="Tracciato_23" data-name="Tracciato 23" d="M205.62,64.72v194.5l157.867,74.021,5.868-255.037Zm139.537,235.9L220.613,242.209V80.009L349.584,93.467Z" transform="translate(50.689 -0.174)" fill="url(#linear-gradient-5)"/>
    <path id="Tracciato_24" data-name="Tracciato 24" d="M215.966,214.78a115.648,115.648,0,0,0-25.234,12.893,40.94,40.94,0,0,0-24.615-12.718l-1.2,2.92a5.087,5.087,0,0,1-2.261-1.346,35.772,35.772,0,0,0-4.038,6.07,48.786,48.786,0,0,1,10.538,19.394,15.626,15.626,0,0,0,1.7,4.6,4.4,4.4,0,0,0,4.132,2.167,6.109,6.109,0,0,0,2.126-.929q14.414-8.519,29.366-16.15c4.038-2.059,11.386-4.038,14.427-7.348a3.8,3.8,0,0,0,.74-4.6c-1.655-2.988-3.58-.888-6.056-.094C215.657,218.1,215.818,216.422,215.966,214.78Z" transform="translate(34.434 51.723)" fill="#fff"/>
    <path id="Tracciato_25" data-name="Tracciato 25" d="M157.679,219.642a382.043,382.043,0,0,0-4.428,54.762,6.379,6.379,0,0,0,.875,4.038,6.729,6.729,0,0,0,3.647,1.871,129.618,129.618,0,0,1,39.9,18.546,39.81,39.81,0,0,1,18.99-19.582,9.569,9.569,0,0,0,3.728-2.463,8.64,8.64,0,0,0,1.346-4.1q3.836-27.173,7.658-54.358c0,.5-18.478,6.9-20.443,7.967-4.926,2.692-12.934,11.1-18.842,10.767-4.912-.323-7.133-5.949-10.861-8.721C173.116,223.72,165.041,220.961,157.679,219.642Z" transform="translate(32.563 52.958)" fill="#f05e5f"/>
    <path id="Tracciato_26" data-name="Tracciato 26" d="M158.4,232.25c1.171.727.094,2.692.592,3.943a2.692,2.692,0,0,0,.982,1.1c2.517,1.79,5.895,1.588,8.815,2.557,1.077.35,2.288,1.346,1.911,2.369a2.382,2.382,0,0,1-1.521,1.171l-3.849,1.548h4.724c.713,0,1.628.175,1.75.861s-.538,1.09-1.1,1.346c-1.6.834-3.257,1.6-4.926,2.3a25.862,25.862,0,0,1,3.822-.161c.7,0,1.628.283,1.628,1s-.592.875-1.09,1.09l-9.986,4.266c-4.657,1.992-9.421,4.038-14.414,4.576a1.965,1.965,0,0,1-1.09-.04,2.046,2.046,0,0,1-.848-1.144,23.121,23.121,0,0,1-1.655-8.358,2.692,2.692,0,0,1,.31-1.534,3.257,3.257,0,0,1,1.211-.9,11,11,0,0,0,4.266-4.293c1.346-2.463,1.857-5.262,3.674-7.5S155.911,233.259,158.4,232.25Z" transform="translate(28.732 57.765)" fill="#fdc0ad"/>
    <path id="Tracciato_27" data-name="Tracciato 27" d="M201.749,234.759c-.754.188-1.682.74-1.454,1.48.135.431.619.646,1.036.794l5.276,1.952a15.3,15.3,0,0,0-5.881.686c-.3.094-.633.256-.646.552s.3.525.579.659l5.289,2.584a8.506,8.506,0,0,0-4.522.982c-.3.161-.619.4-.619.74s.269.538.525.713a15.572,15.572,0,0,0,3.338,1.777,3.445,3.445,0,0,0-1.817.242,1.157,1.157,0,0,0-.511,1.561,1.346,1.346,0,0,0,.511.417l4.374,2.692a1.844,1.844,0,0,0,1.615.377c.619-.242.767-1.036.834-1.7.081-1.023.148-2.046.188-3.068a10.54,10.54,0,0,1,.283-2.517,26.419,26.419,0,0,1,1.1-2.544c.942-2.315.754-6.2-1.2-8.075S204.01,234.194,201.749,234.759Z" transform="translate(48.773 58.365)" fill="#fdc0ad"/>
    <path id="Tracciato_28" data-name="Tracciato 28" d="M243.74,63.7V249.211l10.148,6.9V63.7Z" transform="translate(84.289 22.03)" fill="#68e1fd"/>
    <path id="Tracciato_29" data-name="Tracciato 29" d="M328.193,153.49l-126.6-30.147V111.19l126.886,30.228Z" transform="translate(69.712 38.454)" fill="#68e1fd"/>
    <path id="Tracciato_30" data-name="Tracciato 30" d="M328.476,157.841l-.283,12.072-59.728-14.226V256.115l-10.148-6.9V153.279L201.59,139.767V127.614l56.727,13.512V63.7h10.148v79.835Z" transform="translate(69.712 22.03)" fill="url(#linear-gradient-6)"/>
    <path id="Tracciato_31" data-name="Tracciato 31" d="M175.753,360.851c-5.141,1.023-10.3,1.965-15.464,2.772a210.636,210.636,0,0,1-35.557,2.611C93.549,348.241,53.4,323.047,49,310.019c-7.079-20.7,4.616-33.067,12.611-42.569a44.09,44.09,0,0,0,14.71,29.272C93.172,311.917,152.645,347.3,175.753,360.851Z" transform="translate(-4.232 69.939)" fill="url(#linear-gradient-7)"/>
    <path id="Tracciato_32" data-name="Tracciato 32" d="M238.439,62.17,201.59,128.143l18.425,4.387,37.643-60.5.659-7.806Z" transform="translate(69.712 21.501)" fill="#68e1fd" opacity="0.23"/>
    <path id="Tracciato_33" data-name="Tracciato 33" d="M292.153,67.64,251.28,143.249l18.425,4.387,43.336-70.374.659-7.792Z" transform="translate(86.896 23.393)" fill="#68e1fd" opacity="0.23"/>
    <path id="Tracciato_34" data-name="Tracciato 34" d="M299.663,139.59,251.28,226.154l18.425,4.387,41.129-66.794.175-20.08Z" transform="translate(86.896 48.276)" fill="#68e1fd" opacity="0.23"/>
    <path id="Tracciato_35" data-name="Tracciato 35" d="M246.81,128.23l-45.22,69.432,16.5,7.9,40.066-56.068.161-18.532Z" transform="translate(69.712 44.347)" fill="#68e1fd" opacity="0.23"/>
    <path id="Tracciato_36" data-name="Tracciato 36" d="M246.305,177.277c-.31-.121-.458-.458-.646-.713a1.952,1.952,0,0,0-2.611-.31,2.557,2.557,0,0,0-.875,2.6,1.642,1.642,0,0,1,0,1.131,1.211,1.211,0,0,1-.458.4,6.851,6.851,0,0,1-1.669.659,2.288,2.288,0,0,0-1.346.633,3.444,3.444,0,0,0-.323,1.346,2.288,2.288,0,0,1-1.252,1.615c-.4.2-.9.283-1.2.633a1.346,1.346,0,0,0-.269.794,7.885,7.885,0,0,0,.256,2.005,2.4,2.4,0,0,1-.336,1.925c-.3.35-.781.74-.565,1.144a.8.8,0,0,0,.323.269,8.52,8.52,0,0,0,2.826,1.036,1.074,1.074,0,0,1,.982.511,1.574,1.574,0,0,1,0,.754,2.328,2.328,0,0,0,.861,1.911.9.9,0,0,0,.444.2c.619.081.969-.875,1.588-.9a1.184,1.184,0,0,1,.686.269,7.427,7.427,0,0,1,2.019,1.75c.3.417.538.915,1.023,1.063a1.763,1.763,0,0,0,1.225-.256c.686-.35,1.48-.821,1.521-1.588a1.345,1.345,0,0,1,0-.471.592.592,0,0,1,.7-.269,1.548,1.548,0,0,1,.659.444c.511-.188.565-.9.35-1.346a14.28,14.28,0,0,1-.808-1.346,2.261,2.261,0,0,1,.511-2.073,6.177,6.177,0,0,1,1.777-1.346,1.965,1.965,0,0,0,.713-.565,1.75,1.75,0,0,0-.2-1.857,5.3,5.3,0,0,1-.956-1.723.929.929,0,0,1,.081-.633,1.265,1.265,0,0,1,.4-.35l1.48-.942a.444.444,0,0,0,.2-.215.4.4,0,0,0,0-.3c-.592-1.036-2.113-1.615-2.086-2.813,0-.713.592-1.548.081-2.046a7.628,7.628,0,0,0-1.548-.794c-.336-.2-.646-.646-1-.794C247.92,176.173,247.3,177.532,246.305,177.277Z" transform="translate(60.836 38.273)" fill="#68e1fd" opacity="0.36"/>
    <path id="Tracciato_37" data-name="Tracciato 37" d="M244.647,178.362a1.144,1.144,0,0,0-1.346.417c-.31.377-.471.848-.754,1.252-.929,1.346-2.907,1.777-3.836,3.163a2.961,2.961,0,0,0,.135,3.4,1.2,1.2,0,0,0,.754.484,1.346,1.346,0,0,0,1.009-.754c.579-.848.982-1.8,1.548-2.692a3.822,3.822,0,0,1,2.409-1.79c1.225-.2,2.571.485,3.647-.121,1.346-.727,1.6-3.445.269-4.28a1.817,1.817,0,0,0-1.938.229C245.67,178.321,245.629,178.859,244.647,178.362Z" transform="translate(61.969 38.749)" fill="#68e1fd" opacity="0.79"/>
    <path id="Tracciato_38" data-name="Tracciato 38" d="M246.252,182.824a2.92,2.92,0,0,0-1.7,1.925,2.692,2.692,0,0,1-.269.848c-.35.552-1.13.565-1.79.579a12.449,12.449,0,0,0-3.58.646,1.346,1.346,0,0,0-.9.633,1.063,1.063,0,0,0,.121.942c.875,1.48,3.23,1.265,4.334,2.571a11.7,11.7,0,0,1,.74,1.184,1.467,1.467,0,0,0,1.131.74c.673,0,1.13-.686,1.346-1.346a10.768,10.768,0,0,0,.269-3.365,1.655,1.655,0,0,0,1.9-.283,3.041,3.041,0,0,0,.633-1.157C249.078,184.9,249.145,181.653,246.252,182.824Z" transform="translate(61.872 40.586)" fill="#68e1fd" opacity="0.79"/>
    <path id="Tracciato_39" data-name="Tracciato 39" d="M283.22,182.194a3.836,3.836,0,0,0,.74,2.248,2.059,2.059,0,0,1,.458,1.265,2.693,2.693,0,0,1-.35.807,2.907,2.907,0,0,0,.135,2.772c.431.686,1.171,1.225,1.346,2.019a3.688,3.688,0,0,0,.215.942,1.763,1.763,0,0,0,1.225.686,4.037,4.037,0,0,0,2.961-.242,1.992,1.992,0,0,1,.915-.471,1.117,1.117,0,0,1,.861.565,3.393,3.393,0,0,0,.673.834,2.194,2.194,0,0,0,1.023.283,4.522,4.522,0,0,0,1.346,0,2.422,2.422,0,0,0,1.346-3.8,6.136,6.136,0,0,0-1.063-.982.7.7,0,0,1-.283-.309c-.161-.35.148-.713.3-1.063a2.422,2.422,0,0,0-.2-1.777,3.311,3.311,0,0,1-.417-1.763c.108-.673.659-1.184.915-1.817a.377.377,0,0,0,0-.269.39.39,0,0,0-.3-.188,16.4,16.4,0,0,0-2.557-.444.821.821,0,0,1-.579-.229.605.605,0,0,1-.108-.31c-.108-.982.5-2.046-.686-2.584a2.759,2.759,0,0,0-2.261,0c-.5.256-.861.74-1.346.915a2.194,2.194,0,0,1-1.1,0,1.588,1.588,0,0,0-1.507.35A4.038,4.038,0,0,0,283.22,182.194Z" transform="translate(77.526 39.048)" fill="#68e1fd" opacity="0.36"/>
    <path id="Tracciato_40" data-name="Tracciato 40" d="M285.9,180.976c-.807,1.225.121,3.015-.646,4.253a2.475,2.475,0,0,0-.417.7,1.534,1.534,0,0,0,.229.956l.431.888c.162.336.431.727.794.659a.619.619,0,0,0,.3-.148,3.015,3.015,0,0,0,.794-2.692,4.428,4.428,0,0,1,.363-2.813c.538-.767,1.642-1.171,1.8-2.1a.78.78,0,0,0-.081-.525C288.825,179.132,286.4,180.263,285.9,180.976Z" transform="translate(78.085 39.607)" fill="#68e1fd" opacity="0.36"/>
  </g>
</svg>
